<mxfile host="65bd71144e">
    <diagram id="v4eh2Sh527X7msfksTzJ" name="Página-1">
        <mxGraphModel dx="832" dy="448" grid="1" gridSize="10" guides="1" tooltips="1" connect="1" arrows="1" fold="1" page="1" pageScale="1" pageWidth="827" pageHeight="1169" math="0" shadow="0">
            <root>
                <mxCell id="0"/>
                <mxCell id="1" parent="0"/>
                <mxCell id="2" value="Edificio: Catedral de Santiago" style="swimlane;fontStyle=0;childLayout=stackLayout;horizontal=1;startSize=26;fillColor=none;horizontalStack=0;resizeParent=1;resizeParentMax=0;resizeLast=0;collapsible=1;marginBottom=0;" vertex="1" parent="1">
                    <mxGeometry x="204" y="40" width="420" height="170" as="geometry"/>
                </mxCell>
                <mxCell id="3" value="Lugar: Santiago de Compostela, Galicia&#10;Culto: Católico&#10;Inicio construccioón: 1075&#10;Fin construcción: 1122&#10;Fecha consagración: 1128&#10;Inicio última etapa construcción: 1168&#10;Consagración definitiva: 3/04/1211&#10;Estilos arquitectónicos: románico, gótico, barroco, plateresco y neoclásico&#10;Fecha declaración Bien de Interés Cultural: 1896&#10;" style="text;strokeColor=none;fillColor=none;align=left;verticalAlign=top;spacingLeft=4;spacingRight=4;overflow=hidden;rotatable=0;points=[[0,0.5],[1,0.5]];portConstraint=eastwest;" vertex="1" parent="2">
                    <mxGeometry y="26" width="420" height="144" as="geometry"/>
                </mxCell>
            </root>
        </mxGraphModel>
    </diagram>
</mxfile>
